<?xml version="1.0" encoding="UTF-8"?>
<svg xmlns="http://www.w3.org/2000/svg" viewBox="0 0 436.61 436.61">
  <defs>
    <style>
      .cls-1 {
        fill: #467df5;
      }

      .cls-2 {
        fill: none;
        stroke: gray;
        stroke-width: 5.27px;
      }

      .cls-2, .cls-3 {
        stroke-miterlimit: 10;
      }

      .cls-4 {
        fill: #ccc;
      }

      .cls-5, .cls-3 {
        fill: #fff;
      }

      .cls-3 {
        stroke: #fff;
      }
    </style>
  </defs>
  <g id="FUNDO">
    <rect class="cls-4" x="-1705.44" y="-1490.62" width="5794.69" height="3457.36"/>
    <rect class="cls-3" x="-1705.44" y="-56.82" width="2750.17" height="569.07"/>
  </g>
  <g id="LOGO">
    <g>
      <rect class="cls-1" x="103.09" y="102.5" width="233.76" height="233.76" rx="11.96" ry="11.96"/>
      <g>
        <path class="cls-5" d="M230.54,240.96c7.88-10.45,13.9-22.37,17.57-35.29.01-.04.02-.08.04-.12.06-.21.11-.41.17-.62.03-.11.06-.22.09-.33.64-2.5.99-5.13.99-7.83,0-10.13-4.8-19.13-12.26-24.86h0c-1.14-.87-2.33-1.67-3.58-2.38-4.57-2.6-9.86-4.09-15.49-4.09-8.49,0-16.2,3.38-21.84,8.87-5.86,5.69-9.5,13.65-9.5,22.46,0,2.11.21,4.16.61,6.15,0,.02,0,.03.01.05.3,1.5.71,2.96,1.22,4.38,0,0,0,.02,0,.02,3.26,10.8,8.17,20.87,14.44,29.94,3.05-3.11,5.92-6.41,8.58-9.87,1.14-1.49,2.24-3,3.31-4.56-4.37-6.31-8.09-13.1-11.09-20.27,0-.01-.01-.02-.01-.02-.31-.63-.59-1.28-.8-1.96-.6-1.8-.86-3.75-.73-5.78.47-7.26,6.2-13.26,13.43-14.05,6.33-.69,11.99,2.52,14.85,7.53,1.28,2.22,2.01,4.79,2.01,7.54,0,1.12-.12,2.21-.35,3.26-.23,1.07-.58,2.1-1.03,3.07,0,.01,0,.02-.01.03-3.19,9.03-7.54,17.52-12.89,25.26.15.2.3.4.46.6-.23.01-.45.01-.68.01-.07,0-.14,0-.21,0-3.44,4.92-7.29,9.54-11.49,13.81-3.89,3.95-8.07,7.6-12.53,10.92-2.06,1.53-4.57,2.34-7.13,2.34h-10.64c-1.98,0-3.74-1.24-4.4-3.1l-30.37-85.03c-.34-.96-1.25-1.59-2.26-1.59h-14.08c-.63,0-1.07.63-.86,1.22l31.63,88.5,3.31,9.28,1.8,5.03h0c.82,2.3,3,3.84,5.45,3.84h12.98s7.45,0,7.45,0h0c2.92,0,5.8-.68,8.38-2.05,8.24-4.39,15.84-9.81,22.63-16.1.13-.12.26-.24.39-.36,4.53-4.25,8.7-8.88,12.45-13.85h0Z"/>
        <path class="cls-5" d="M294.42,167.01l-30.46,85.27c-.62,1.73-2.26,2.89-4.1,2.89h-.98c-6.38,0-12.6-1.99-17.8-5.69-2.26-1.61-4.53-3.29-6.12-4.62-.33-.27-.81-.21-1.06.13-2.66,3.57-5.54,6.97-8.62,10.18-.85.89-1.71,1.76-2.59,2.62-.32.31-.3.83.04,1.12,5.63,4.69,11.74,8.82,18.25,12.3.78.41,1.84.77,2.96,1.07,2.72.72,5.53,1.05,8.35,1.05h13.96c4.35,0,8.23-2.73,9.69-6.83h0s4.04-11.32,4.04-11.32l31.69-88.72c.03-.08.04-.17.04-.25h0c0-.42-.34-.75-.75-.75h-14.32c-1,0-1.88.63-2.22,1.56Z"/>
      </g>
    </g>
  </g>
  <g id="FIXO">
    <rect class="cls-2" x="-1989.81" y="-3671.72" width="6666" height="9348.4"/>
  </g>
</svg>